<?xml version="1.0" encoding="utf-8"?>
<!-- Generator: Adobe Illustrator 14.0.0, SVG Export Plug-In . SVG Version: 6.00 Build 43363)  -->
<!DOCTYPE svg PUBLIC "-//W3C//DTD SVG 1.1//EN" "http://www.w3.org/Graphics/SVG/1.1/DTD/svg11.dtd">
<svg version="1.1" id="Layer_2" xmlns="http://www.w3.org/2000/svg" xmlns:xlink="http://www.w3.org/1999/xlink" x="0px" y="0px"
	 width="98px" height="120px" viewBox="0 0 98 120" enable-background="new 0 0 98 120" xml:space="preserve">
<g>
	<g>
		<g>
			<path fill="#63CAE1" d="M20.378,115.283H11.63c-0.912,0-1.651-0.738-1.651-1.649v-8.742c0-0.911,0.739-1.65,1.651-1.65h8.748
				c0.912,0,1.651,0.739,1.651,1.65v8.742C22.029,114.545,21.29,115.283,20.378,115.283z M13.281,111.985h5.446v-5.444h-5.446
				V111.985z"/>
		</g>
		<g>
			<path fill="#63CAE1" d="M62.642,115.283c-0.911,0-1.65-0.738-1.65-1.649v-7.093h-5.447v7.093c0,0.911-0.739,1.649-1.65,1.649
				c-0.912,0-1.65-0.738-1.65-1.649v-8.742c0-0.911,0.738-1.65,1.65-1.65h8.748c0.912,0,1.651,0.739,1.651,1.65v8.742
				C64.293,114.545,63.554,115.283,62.642,115.283z"/>
		</g>
		<g>
			<path fill="#63CAE1" d="M79.073,115.283h-8.75c-0.911,0-1.65-0.738-1.65-1.649v-8.742c0-0.911,0.739-1.65,1.65-1.65
				c0.912,0,1.652,0.739,1.652,1.65v7.094h5.447v-7.094c0-0.911,0.739-1.65,1.65-1.65c0.912,0,1.65,0.739,1.65,1.65v8.742
				C80.724,114.545,79.985,115.283,79.073,115.283z"/>
		</g>
		<g>
			<path fill="#63CAE1" d="M48.496,115.283h-8.75c-0.912,0-1.651-0.738-1.651-1.649v-8.742c0-0.911,0.739-1.65,1.651-1.65h8.75
				c0.911,0,1.651,0.739,1.651,1.65v4.04c0,0.91-0.74,1.649-1.651,1.649h-7.098v1.404h7.098c0.911,0,1.651,0.738,1.651,1.648
				C50.146,114.545,49.406,115.283,48.496,115.283z M41.397,107.95h5.448v-1.409h-5.448V107.95z"/>
		</g>
		<path fill="#63CAE1" d="M34.584,103.241h-8.75c-0.912,0-1.651,0.739-1.651,1.65v6.046v2.696v4.298c0,0.91,0.74,1.65,1.651,1.65
			s1.651-0.74,1.651-1.65v-2.648h7.099c0.912,0,1.651-0.738,1.651-1.649v-8.742C36.235,103.98,35.496,103.241,34.584,103.241z
			 M32.933,111.985h-5.448v-1.048v-4.396h5.448V111.985z"/>
		<path fill="#63CAE1" d="M93.167,103.241H84.42c-0.913,0-1.651,0.739-1.651,1.65v6.046v2.696v4.298c0,0.91,0.738,1.65,1.651,1.65
			c0.91,0,1.65-0.74,1.65-1.65v-2.648h7.097c0.911,0,1.65-0.738,1.65-1.649v-8.742C94.817,103.98,94.078,103.241,93.167,103.241z
			 M91.516,111.985H86.07v-1.048v-4.396h5.445V111.985z"/>
	</g>
	<g>
		<g>
			<g>
				<path fill="#FFFFFF" d="M87.544,49.752H40.645c-1.622,0-2.936-1.313-2.936-2.933V33.637c0-1.62,1.314-2.934,2.936-2.934h46.899
					c1.621,0,2.935,1.313,2.935,2.934v13.183C90.479,48.439,89.165,49.752,87.544,49.752z M43.58,43.886h41.03V36.57H43.58V43.886z"
					/>
			</g>
		</g>
		<g>
			<path fill="#FFFFFF" d="M59.575,94.327H12.942c-1.621,0-2.935-1.313-2.935-2.934s1.314-2.933,2.935-2.933h43.698L56.64,60.368
				H36.493c-1.621,0-2.935-1.312-2.935-2.933s1.314-2.934,2.935-2.934h23.083c1.62,0,2.934,1.313,2.934,2.934l0.001,33.958
				c0,0.777-0.31,1.523-0.859,2.073C61.101,94.018,60.354,94.327,59.575,94.327z"/>
		</g>
		<g>
			<path fill="#FFFFFF" d="M91.989,94.327H68.906c-1.621,0-2.935-1.313-2.935-2.934s1.313-2.933,2.935-2.933h20.148l-0.002-28.093
				H68.906c-1.621,0-2.935-1.312-2.935-2.933s1.313-2.934,2.935-2.934h23.082c1.62,0,2.935,1.313,2.935,2.934v33.958
				c0,0.777-0.309,1.523-0.858,2.073C93.515,94.018,92.768,94.327,91.989,94.327z"/>
		</g>
		<g>
			<path fill="#FFFFFF" d="M43.406,67.604c-0.188-0.208-0.497-0.257-0.739-0.115c-3.038,1.762-4.528,4.534-4.43,8.225v4.131
				c0,0.328,0.266,0.594,0.594,0.594h4.685c0.329,0,0.594-0.266,0.594-0.594v-4.82c0-0.327-0.266-0.593-0.594-0.593H41.52
				c0.173-1.829,1.165-3.324,3.016-4.558c0.144-0.097,0.238-0.25,0.26-0.421c0.021-0.171-0.033-0.343-0.148-0.471L43.406,67.604z"/>
			<path fill="#FFFFFF" d="M51.06,67.604c-0.188-0.208-0.498-0.257-0.739-0.115c-3.04,1.763-4.529,4.536-4.43,8.225v4.131
				c0,0.328,0.266,0.594,0.594,0.594h4.546c0.328,0,0.595-0.266,0.595-0.594v-4.82c0-0.327-0.267-0.593-0.595-0.593H49.15
				c0.105-1.825,1.101-3.318,3.028-4.552c0.146-0.095,0.244-0.248,0.269-0.421c0.023-0.173-0.031-0.348-0.147-0.477L51.06,67.604z"
				/>
			<path fill="#FFFFFF" d="M83.538,67.416h-4.685c-0.328,0-0.594,0.267-0.594,0.594v4.819c0,0.328,0.266,0.595,0.594,0.595h1.88
				c-0.106,1.827-1.101,3.319-3.027,4.55c-0.143,0.092-0.239,0.238-0.267,0.406c-0.026,0.168,0.02,0.339,0.127,0.47l1.24,1.516
				c0.117,0.143,0.287,0.218,0.46,0.218c0.111,0,0.227-0.032,0.326-0.098c3.108-2.037,4.635-4.851,4.54-8.345V68.01
				C84.133,67.683,83.867,67.416,83.538,67.416z"/>
			<path fill="#FFFFFF" d="M75.884,67.416H71.2c-0.328,0-0.594,0.267-0.594,0.594v4.819c0,0.328,0.266,0.595,0.594,0.595h1.996
				c-0.174,1.83-1.164,3.324-3.016,4.556c-0.136,0.09-0.228,0.23-0.256,0.391c-0.028,0.158,0.009,0.322,0.104,0.453l1.104,1.515
				c0.115,0.159,0.295,0.245,0.481,0.245c0.106,0,0.215-0.028,0.314-0.089c3.115-1.945,4.646-4.76,4.549-8.354V68.01
				C76.478,67.683,76.213,67.416,75.884,67.416z"/>
		</g>
		<g>
			<path fill="#FFFFFF" d="M33.576,25.968c-1.304,0-2.452-0.86-2.817-2.112c-0.366-1.251,0.14-2.593,1.239-3.294L62.511,1.111
				c0.963-0.614,2.195-0.614,3.156,0l30.518,19.45c1.099,0.7,1.604,2.043,1.239,3.294c-0.365,1.252-1.514,2.112-2.818,2.112
				L33.576,25.968z M64.091,7.063L43.636,20.101l40.91,0L64.091,7.063z"/>
		</g>
		<path fill="#FFFFFF" d="M26.054,30.761H12.942c-1.621,0-2.935,1.313-2.935,2.933v22.328c-0.099,0.084-0.2,0.164-0.289,0.262
			l-7.56,8.418c-0.773,0.862-0.967,2.098-0.495,3.155c0.472,1.057,1.522,1.737,2.681,1.737h5.663v11.153
			c0,1.62,1.314,2.934,2.935,2.934h13.112c1.621,0,2.935-1.313,2.935-2.934V33.694C28.989,32.074,27.675,30.761,26.054,30.761z
			 M23.119,77.815h-7.241V63.837h-5.119l5.119-4.938V36.627h7.241V77.815z"/>
	</g>
</g>
</svg>
